<svg width="25" height="30" viewBox="0 0 25 30" fill="none" xmlns="http://www.w3.org/2000/svg">
<rect width="25" height="30" rx="5" fill="#FF6652"/>
<path d="M5.75345 8.12451C5.75297 8.12451 5.75242 8.12451 5.75194 8.12451C5.58169 8.12451 5.42157 8.19088 5.30066 8.31148C5.17842 8.43342 5.11108 8.59579 5.11108 8.76863V18.4271C5.11108 18.7813 5.40036 19.0702 5.756 19.0711C7.25527 19.0747 9.76716 19.3871 11.5 21.2005V11.0926C11.5 10.9726 11.4694 10.8598 11.4115 10.7665C9.98923 8.47603 7.25612 8.12803 5.75345 8.12451Z" fill="white"/>
<path d="M18.889 18.4272V8.76863C18.889 8.59579 18.8217 8.43342 18.6994 8.31148C18.5785 8.19088 18.4183 8.12451 18.2482 8.12451C18.2477 8.12451 18.2471 8.12451 18.2466 8.12451C16.744 8.12809 14.0109 8.47609 12.5886 10.7665C12.5307 10.8599 12.5001 10.9726 12.5001 11.0927V21.2006C14.233 19.3872 16.7449 19.0747 18.2441 19.0711C18.5997 19.0702 18.889 18.7813 18.889 18.4272Z" fill="white"/>
<path d="M20.3559 10.3521H19.8889V18.4273C19.8889 19.3316 19.1521 20.069 18.2464 20.0712C16.9747 20.0743 14.8779 20.3229 13.3928 21.7285C15.9612 21.0996 18.6687 21.5084 20.2118 21.86C20.4044 21.9039 20.6035 21.8586 20.7579 21.7355C20.9117 21.6128 20.9999 21.4294 20.9999 21.2325V10.9961C21 10.641 20.711 10.3521 20.3559 10.3521Z" fill="white"/>
<path d="M4.11103 18.4273V10.3521H3.644C3.28897 10.3521 3 10.641 3 10.9961V21.2323C3 21.4292 3.08824 21.6126 3.24206 21.7354C3.3963 21.8583 3.59521 21.9038 3.78818 21.8598C5.33122 21.5081 8.0388 21.0994 10.6071 21.7283C9.12208 20.3228 7.02523 20.0742 5.75352 20.0712C4.84788 20.069 4.11103 19.3316 4.11103 18.4273Z" fill="white"/>
</svg>
